<mxfile host="Electron" agent="Mozilla/5.0 (Windows NT 10.0; Win64; x64) AppleWebKit/537.36 (KHTML, like Gecko) draw.io/26.0.4 Chrome/128.0.6613.186 Electron/32.2.5 Safari/537.36" version="26.0.4">
  <diagram name="Page-1" id="eKivp1HzjIRXEIwRp8Rb">
    <mxGraphModel dx="2284" dy="844" grid="1" gridSize="10" guides="1" tooltips="1" connect="1" arrows="1" fold="1" page="1" pageScale="1" pageWidth="850" pageHeight="1100" math="0" shadow="0">
      <root>
        <mxCell id="0" />
        <mxCell id="1" parent="0" />
        <mxCell id="UAR3ld3Zy0RFql9crc1q-30" style="edgeStyle=orthogonalEdgeStyle;rounded=0;orthogonalLoop=1;jettySize=auto;html=1;exitX=1;exitY=0.5;exitDx=0;exitDy=0;entryX=0.5;entryY=0;entryDx=0;entryDy=0;" parent="1" source="UAR3ld3Zy0RFql9crc1q-13" target="UAR3ld3Zy0RFql9crc1q-26" edge="1">
          <mxGeometry relative="1" as="geometry" />
        </mxCell>
        <mxCell id="UAR3ld3Zy0RFql9crc1q-13" value="Contact" style="ellipse;whiteSpace=wrap;html=1;aspect=fixed;" parent="1" vertex="1">
          <mxGeometry x="570" y="190" width="80" height="80" as="geometry" />
        </mxCell>
        <mxCell id="UAR3ld3Zy0RFql9crc1q-20" style="edgeStyle=orthogonalEdgeStyle;rounded=0;orthogonalLoop=1;jettySize=auto;html=1;exitX=0;exitY=0.5;exitDx=0;exitDy=0;entryX=0.5;entryY=0;entryDx=0;entryDy=0;" parent="1" source="UAR3ld3Zy0RFql9crc1q-14" target="UAR3ld3Zy0RFql9crc1q-19" edge="1">
          <mxGeometry relative="1" as="geometry" />
        </mxCell>
        <mxCell id="UAR3ld3Zy0RFql9crc1q-21" style="edgeStyle=orthogonalEdgeStyle;rounded=0;orthogonalLoop=1;jettySize=auto;html=1;exitX=1;exitY=0.5;exitDx=0;exitDy=0;entryX=0.5;entryY=0;entryDx=0;entryDy=0;" parent="1" source="UAR3ld3Zy0RFql9crc1q-14" target="UAR3ld3Zy0RFql9crc1q-18" edge="1">
          <mxGeometry relative="1" as="geometry" />
        </mxCell>
        <mxCell id="TUs59KcY0UVWzd-qGQxQ-6" style="edgeStyle=orthogonalEdgeStyle;rounded=0;orthogonalLoop=1;jettySize=auto;html=1;exitX=0.5;exitY=1;exitDx=0;exitDy=0;" edge="1" parent="1" source="UAR3ld3Zy0RFql9crc1q-14" target="TUs59KcY0UVWzd-qGQxQ-5">
          <mxGeometry relative="1" as="geometry" />
        </mxCell>
        <mxCell id="TUs59KcY0UVWzd-qGQxQ-9" style="edgeStyle=orthogonalEdgeStyle;rounded=0;orthogonalLoop=1;jettySize=auto;html=1;exitX=0;exitY=0.5;exitDx=0;exitDy=0;entryX=0.5;entryY=0;entryDx=0;entryDy=0;" edge="1" parent="1" source="UAR3ld3Zy0RFql9crc1q-14" target="ZHj7rDqXeUMUuxqNqG8W-23">
          <mxGeometry relative="1" as="geometry" />
        </mxCell>
        <mxCell id="UAR3ld3Zy0RFql9crc1q-14" value="Tasks" style="ellipse;whiteSpace=wrap;html=1;aspect=fixed;" parent="1" vertex="1">
          <mxGeometry x="140" y="190" width="80" height="80" as="geometry" />
        </mxCell>
        <mxCell id="UAR3ld3Zy0RFql9crc1q-16" style="edgeStyle=orthogonalEdgeStyle;rounded=0;orthogonalLoop=1;jettySize=auto;html=1;exitX=1;exitY=0.5;exitDx=0;exitDy=0;entryX=0.5;entryY=0;entryDx=0;entryDy=0;" parent="1" source="UAR3ld3Zy0RFql9crc1q-15" target="UAR3ld3Zy0RFql9crc1q-13" edge="1">
          <mxGeometry relative="1" as="geometry" />
        </mxCell>
        <mxCell id="UAR3ld3Zy0RFql9crc1q-17" style="edgeStyle=orthogonalEdgeStyle;rounded=0;orthogonalLoop=1;jettySize=auto;html=1;exitX=0;exitY=0.5;exitDx=0;exitDy=0;entryX=0.5;entryY=0;entryDx=0;entryDy=0;" parent="1" source="UAR3ld3Zy0RFql9crc1q-15" target="UAR3ld3Zy0RFql9crc1q-14" edge="1">
          <mxGeometry relative="1" as="geometry" />
        </mxCell>
        <mxCell id="ZHj7rDqXeUMUuxqNqG8W-4" style="edgeStyle=orthogonalEdgeStyle;rounded=0;orthogonalLoop=1;jettySize=auto;html=1;exitX=0.5;exitY=1;exitDx=0;exitDy=0;entryX=0.5;entryY=0;entryDx=0;entryDy=0;" parent="1" source="UAR3ld3Zy0RFql9crc1q-15" target="ZHj7rDqXeUMUuxqNqG8W-3" edge="1">
          <mxGeometry relative="1" as="geometry" />
        </mxCell>
        <mxCell id="ZHj7rDqXeUMUuxqNqG8W-19" style="edgeStyle=orthogonalEdgeStyle;rounded=0;orthogonalLoop=1;jettySize=auto;html=1;exitX=1;exitY=0.5;exitDx=0;exitDy=0;entryX=0.5;entryY=0;entryDx=0;entryDy=0;" parent="1" source="UAR3ld3Zy0RFql9crc1q-15" target="ZHj7rDqXeUMUuxqNqG8W-18" edge="1">
          <mxGeometry relative="1" as="geometry" />
        </mxCell>
        <mxCell id="TUs59KcY0UVWzd-qGQxQ-2" style="edgeStyle=orthogonalEdgeStyle;rounded=0;orthogonalLoop=1;jettySize=auto;html=1;exitX=1;exitY=0.5;exitDx=0;exitDy=0;entryX=0.5;entryY=0;entryDx=0;entryDy=0;" edge="1" parent="1" source="UAR3ld3Zy0RFql9crc1q-15" target="TUs59KcY0UVWzd-qGQxQ-1">
          <mxGeometry relative="1" as="geometry" />
        </mxCell>
        <mxCell id="UAR3ld3Zy0RFql9crc1q-15" value="App" style="ellipse;whiteSpace=wrap;html=1;aspect=fixed;" parent="1" vertex="1">
          <mxGeometry x="385" y="50" width="80" height="80" as="geometry" />
        </mxCell>
        <mxCell id="ZHj7rDqXeUMUuxqNqG8W-26" style="edgeStyle=orthogonalEdgeStyle;rounded=0;orthogonalLoop=1;jettySize=auto;html=1;exitX=0.5;exitY=1;exitDx=0;exitDy=0;entryX=0.5;entryY=0;entryDx=0;entryDy=0;" parent="1" source="UAR3ld3Zy0RFql9crc1q-18" target="ZHj7rDqXeUMUuxqNqG8W-5" edge="1">
          <mxGeometry relative="1" as="geometry" />
        </mxCell>
        <mxCell id="UAR3ld3Zy0RFql9crc1q-18" value="TaskWindow" style="ellipse;whiteSpace=wrap;html=1;aspect=fixed;" parent="1" vertex="1">
          <mxGeometry x="280" y="300" width="80" height="80" as="geometry" />
        </mxCell>
        <mxCell id="UAR3ld3Zy0RFql9crc1q-19" value="TaskForm" style="ellipse;whiteSpace=wrap;html=1;aspect=fixed;" parent="1" vertex="1">
          <mxGeometry y="310" width="80" height="80" as="geometry" />
        </mxCell>
        <mxCell id="UAR3ld3Zy0RFql9crc1q-26" value="ContactForm" style="ellipse;whiteSpace=wrap;html=1;aspect=fixed;" parent="1" vertex="1">
          <mxGeometry x="670" y="320" width="80" height="80" as="geometry" />
        </mxCell>
        <mxCell id="ZHj7rDqXeUMUuxqNqG8W-21" style="edgeStyle=orthogonalEdgeStyle;rounded=0;orthogonalLoop=1;jettySize=auto;html=1;exitX=0.5;exitY=1;exitDx=0;exitDy=0;entryX=0.5;entryY=0;entryDx=0;entryDy=0;" parent="1" source="ZHj7rDqXeUMUuxqNqG8W-3" target="ZHj7rDqXeUMUuxqNqG8W-20" edge="1">
          <mxGeometry relative="1" as="geometry" />
        </mxCell>
        <mxCell id="ZHj7rDqXeUMUuxqNqG8W-3" value="Home" style="ellipse;whiteSpace=wrap;html=1;aspect=fixed;" parent="1" vertex="1">
          <mxGeometry x="385" y="190" width="80" height="80" as="geometry" />
        </mxCell>
        <mxCell id="ZHj7rDqXeUMUuxqNqG8W-5" value="TaskDetails" style="ellipse;whiteSpace=wrap;html=1;aspect=fixed;" parent="1" vertex="1">
          <mxGeometry x="280" y="420" width="80" height="80" as="geometry" />
        </mxCell>
        <mxCell id="ZHj7rDqXeUMUuxqNqG8W-18" value="Navbar" style="ellipse;whiteSpace=wrap;html=1;aspect=fixed;" parent="1" vertex="1">
          <mxGeometry x="850" y="190" width="80" height="80" as="geometry" />
        </mxCell>
        <mxCell id="ZHj7rDqXeUMUuxqNqG8W-20" value="Dropdown" style="ellipse;whiteSpace=wrap;html=1;aspect=fixed;" parent="1" vertex="1">
          <mxGeometry x="385" y="330" width="80" height="80" as="geometry" />
        </mxCell>
        <mxCell id="TUs59KcY0UVWzd-qGQxQ-10" style="edgeStyle=orthogonalEdgeStyle;rounded=0;orthogonalLoop=1;jettySize=auto;html=1;exitX=0.5;exitY=1;exitDx=0;exitDy=0;entryX=0.5;entryY=0;entryDx=0;entryDy=0;" edge="1" parent="1" source="ZHj7rDqXeUMUuxqNqG8W-23" target="TUs59KcY0UVWzd-qGQxQ-8">
          <mxGeometry relative="1" as="geometry" />
        </mxCell>
        <mxCell id="ZHj7rDqXeUMUuxqNqG8W-23" value="TaskContainer" style="ellipse;whiteSpace=wrap;html=1;aspect=fixed;" parent="1" vertex="1">
          <mxGeometry x="-110" y="310" width="80" height="80" as="geometry" />
        </mxCell>
        <mxCell id="TUs59KcY0UVWzd-qGQxQ-1" value="Footer" style="ellipse;whiteSpace=wrap;html=1;aspect=fixed;" vertex="1" parent="1">
          <mxGeometry x="990" y="190" width="80" height="80" as="geometry" />
        </mxCell>
        <mxCell id="TUs59KcY0UVWzd-qGQxQ-5" value="FilterButtons" style="ellipse;whiteSpace=wrap;html=1;aspect=fixed;" vertex="1" parent="1">
          <mxGeometry x="140" y="310" width="80" height="80" as="geometry" />
        </mxCell>
        <mxCell id="TUs59KcY0UVWzd-qGQxQ-8" value="TaskCard" style="ellipse;whiteSpace=wrap;html=1;aspect=fixed;" vertex="1" parent="1">
          <mxGeometry x="-110" y="430" width="80" height="80" as="geometry" />
        </mxCell>
      </root>
    </mxGraphModel>
  </diagram>
</mxfile>
